<svg width="25" height="32" viewBox="0 0 25 32" fill="none" xmlns="http://www.w3.org/2000/svg">
<g clip-path="url(#clip0_320_378)">
<path d="M0 0.518066V9.42772C0.653963 9.05143 1.3511 8.75575 2.07617 8.54713C3.43437 8.26111 4.84472 8.34895 6.15693 8.80128C7.24871 9.15925 7.89662 9.73198 9.10295 10.7629C10.3916 11.8905 10.9608 12.5993 12.9403 14.1814L13.4629 14.5967L13.8209 14.2387L0 0.518066Z" fill="#EE2525"/>
<path d="M0 9.42779V11.6579C3.1429 8.93381 6.17125 9.59603 9.50029 11.8798C10.7884 12.7969 11.9869 13.8336 13.0799 14.9762L13.4701 14.5968C12.0597 13.5014 9.89046 11.4109 8.61254 10.3263C7.48999 9.22488 6.02731 8.53642 4.46315 8.37324C2.899 8.21007 1.32571 8.5818 0 9.42779Z" fill="#3C91CF"/>
<path d="M0 11.6579V17.8972C4.39218 15.1946 8.16867 15.0621 11.5478 16.5334L13.1014 14.9476C7.73196 9.62113 3.75501 8.41122 0 11.6579Z" fill="#46B0E4"/>
<path d="M0 17.8972V27.9666L11.5478 16.5333C7.35968 14.5538 3.29324 15.821 0 17.8972Z" fill="#D72027"/>
<path d="M13.8887 14.8365L24.9855 3.73975V14.9869C23.0274 16.6621 16.9457 16.8698 13.8887 14.8365Z" fill="#EE2525"/>
<path d="M13.8892 14.8364L13.5098 15.1944C18.2742 18.6022 21.3455 18.5914 24.9645 16.5511V14.9868C22.7487 16.7193 17.5153 16.7694 13.8892 14.8364Z" fill="#3C91CF"/>
<path d="M13.5096 15.1946L11.9561 16.7553C13.7459 18.4091 15.4641 20.07 16.8172 21.0508C19.1081 22.9874 21.7713 23.4563 24.9751 22.2965V16.5692C20.1784 19.2539 16.6561 17.4605 13.5096 15.1946Z" fill="#46B0E4"/>
<path d="M11.956 16.7551L11.1147 17.5963L25.0001 31.4816V22.2785C19.8955 23.943 17.5616 22.1245 11.956 16.7551Z" fill="#D72027"/>
</g>
<defs>
<clipPath id="clip0_320_378">
<rect width="25" height="30.9636" fill="white" transform="translate(0 0.518066)"/>
</clipPath>
</defs>
</svg>
